<?xml version="1.0" encoding="UTF-8" standalone="no"?>
<svg
   viewBox="0 0 19.999998 20"
   version="1.1"
   id="svg1"
   width="19.999998"
   height="20"
   xmlns="http://www.w3.org/2000/svg"
   xmlns:svg="http://www.w3.org/2000/svg">
  <defs
     id="defs1" />
  <title
     id="title1" />
  <g
     data-name="Layer 2"
     id="Layer_2"
     transform="translate(-2,-2)">
    <path
       d="M 18,3 V 2 H 6 v 1 c -5.33333102,0 -5.33333102,8 0,8 h 0.81 c 0.8942285,1.545011 2.4299815,2.611608 4.19,2.91 V 16 H 8.0651533 A 1.0824524,1.0824524 142.01812 0 0 7.0150202,16.819919 L 5.9249798,21.180081 A 0.65987578,0.65987578 52.018122 0 0 6.5651533,22 L 17.434847,22 A 0.65987578,0.65987578 127.98188 0 0 18.07502,21.180081 L 16.98498,16.819919 A 1.0824524,1.0824524 37.981878 0 0 15.934847,16 H 13 V 13.91 C 14.760018,13.611608 16.295771,12.545011 17.19,11 H 18 c 5.333331,0 5.333331,-8 0,-8 z M 6,9 C 4.8954305,9 4,8.1045695 4,7 4,5.8954305 4.8954305,5 6,5 v 3 c -7.205e-4,0.3353876 0.029406,0.6701307 0.09,1 z M 19.41,8.41 C 19.03665,8.7855878 18.529577,8.9977672 18,9 H 17.91 C 17.970594,8.6701307 18.000721,8.3353876 18,8 V 5 c 1.104569,0 2,0.8954305 2,2 -0.0022,0.5295768 -0.214412,1.0366497 -0.59,1.41 z"
       id="path1" />
  </g>
</svg>
