<?xml version="1.0" encoding="UTF-8" standalone="no"?>
<svg
   height="18"
   id="Layer_1"
   version="1.2"
   viewBox="0 0 20 18"
   width="20"
   xml:space="preserve"
   sodipodi:docname="home.svg"
   xmlns:inkscape="http://www.inkscape.org/namespaces/inkscape"
   xmlns:sodipodi="http://sodipodi.sourceforge.net/DTD/sodipodi-0.dtd"
   xmlns="http://www.w3.org/2000/svg"
   xmlns:svg="http://www.w3.org/2000/svg"><defs
     id="defs1" /><sodipodi:namedview
     id="namedview1"
     pagecolor="#ffffff"
     bordercolor="#000000"
     borderopacity="0.25"
     inkscape:showpageshadow="2"
     inkscape:pageopacity="0.0"
     inkscape:pagecheckerboard="0"
     inkscape:deskcolor="#d1d1d1" /><path
     d="M 10,0 C 10,0 3.814,5.34 0.357,8.232 0.154,8.416 0,8.684 0,9 c 0,0.553 0.447,1 1,1 h 2 v 7 c 0,0.553 0.447,1 1,1 h 3 c 0.553,0 1,-0.448 1,-1 v -4 h 4 v 4 c 0,0.552 0.447,1 1,1 h 3 c 0.553,0 1,-0.447 1,-1 v -7 h 2 C 19.553,10 20,9.553 20,9 20,8.684 19.846,8.416 19.617,8.232 16.184,5.34 10,0 10,0 Z"
     id="path1" /></svg>
