<?xml version="1.0" encoding="UTF-8" standalone="no"?>
<svg
   height="13.00025"
   id="Layer_1"
   version="1.2"
   viewBox="0 0 18 13.00025"
   width="18"
   xml:space="preserve"
   sodipodi:docname="retry.svg"
   xmlns:inkscape="http://www.inkscape.org/namespaces/inkscape"
   xmlns:sodipodi="http://sodipodi.sourceforge.net/DTD/sodipodi-0.dtd"
   xmlns="http://www.w3.org/2000/svg"
   xmlns:svg="http://www.w3.org/2000/svg"><defs
     id="defs1" /><sodipodi:namedview
     id="namedview1"
     pagecolor="#ffffff"
     bordercolor="#000000"
     borderopacity="0.25"
     inkscape:showpageshadow="2"
     inkscape:pageopacity="0.0"
     inkscape:pagecheckerboard="0"
     inkscape:deskcolor="#d1d1d1" /><path
     d="m 13.5,3.0002499 h -2.086 l 1.293,-1.293 c 0.391,-0.391 0.391,-1.02300004 0,-1.41400004 -0.391,-0.391 -1.023,-0.391 -1.414,0 l -3.707,3.70700004 3.707,3.707 c 0.195,0.195 0.451,0.293 0.707,0.293 0.256,0 0.512,-0.098 0.707,-0.293 0.391,-0.391 0.391,-1.023 0,-1.414 l -1.293,-1.293 H 13.5 c 1.379,0 2.5,1.346 2.5,3 0,1.654 -1.346,3.0000001 -3,3.0000001 H 5 c -1.654,0 -3,-1.3460001 -3,-3.0000001 0,-1.654 1.346,-3 3,-3 v 0 c 0.553,0 1,-0.448 1,-1 0,-0.552 -0.447,-1 -1,-1 v 0 c -2.757,0 -5,2.243 -5,5 C 0,10.75725 2.243,13.00025 5,13.00025 h 8 c 2.757,0 5,-2.243 5,-5.0000001 0,-2.757 -2.019,-5 -4.5,-5 z"
     id="path1" /></svg>
